<svg width="349" height="62" viewBox="0 0 349 62" fill='white' xmlns="http://www.w3.org/2000/svg">
<path d="M35.0391 3.18672L31.8785 0H28.012L31.7341 3.75289H24.1295V6.51903H31.7341L28.012 10.2719H31.8785L35.0391 7.08519L36.9804 5.12787L35.0391 3.18672Z"/>
<path d="M21.8672 54.207L25.0278 57.3937H28.8943L25.1722 53.6247H32.7769V50.8747H25.1722L28.8943 47.1218H25.0278L21.8672 50.3085L19.9259 52.2497L21.8672 54.207Z"/>
<path d="M5.90375 42.0256V46.5388L8.6472 49.2887V43.9829L14.0218 49.4181L15.9631 47.4608L10.5724 42.0256H15.8508L13.1073 39.2756H8.6472H5.90375V42.0256Z"/>
<path d="M51.0024 15.3517V10.8547L48.275 8.08858V13.4106L42.8843 7.97534L40.9591 9.93267L46.3337 15.3517H41.0714L43.7988 18.1178H48.275H51.0024V15.3517Z"/>
<path d="M49.8793 26.2867L46.7187 29.4734V33.3719L50.4568 29.619V37.2865H53.1843V29.619L56.9064 33.3719V29.4734L53.7458 26.2867L51.8206 24.3293L49.8793 26.2867Z"/>
<path d="M7.0271 31.1073L10.1877 27.9206V24.0221L6.46557 27.775V20.1074H3.72212V27.775L0 24.0221V27.9206L3.16059 31.1073L5.08582 33.0484L7.0271 31.1073Z"/>
<path d="M45.291 42.269H40.8309L38.1035 45.019H43.3658L37.9752 50.4542L39.9164 52.4115L45.291 46.9763V52.2983L48.0345 49.5322V45.019V42.269H45.291Z"/>
<path d="M11.6153 15.1247H16.0754L18.8189 12.3585H13.5405L18.9312 6.93951L16.9899 4.98218L11.6153 10.4174V5.09541L8.87186 7.86155V12.3585V15.1247H11.6153Z"/>
<path d="M77.3117 47.644H92.121C94.22 47.644 94.5698 47.644 95.1529 47.5857C102.499 47.0027 106.464 41.5804 106.464 35.8665C106.464 30.4442 102.091 26.771 96.3772 26.188V26.1297C101.741 25.2551 104.715 20.9406 104.715 17.1508C104.715 10.8539 100.808 6.71432 94.1617 6.07297C93.6369 6.01466 93.2871 6.01466 89.8471 6.01466H77.3117V47.644ZM82.8506 24.089V10.679H91.4214C96.2606 10.679 99.1759 12.4865 99.1759 17.1508C99.1759 21.8152 96.2606 24.089 91.4214 24.089H82.8506ZM82.8506 42.9797V28.7534H93.0539C97.6599 28.7534 100.925 31.4354 100.925 35.8665C100.925 40.356 97.6599 42.9797 93.0539 42.9797H82.8506ZM118.323 42.9797V28.8117H137.738V24.1473H118.323V10.679H138.963V6.01466H112.784V47.644H139.138V42.9797H118.323ZM184.501 10.679V6.01466H158.847V47.644H164.386V28.8117H182.81V24.1473H164.386V10.679H184.501ZM190.8 6.01466V47.644H196.339V6.01466H190.8ZM243.548 35.3418H238.009C236.318 40.1811 232.237 43.7376 224.774 43.7376C214.337 43.7376 209.09 35.8665 209.09 26.8294C209.09 17.7922 214.395 9.92106 224.774 9.92106C232.178 9.92106 235.677 13.0112 237.95 18.2586H243.489C240.924 10.8539 235.327 5.2567 224.774 5.2567C211.072 5.2567 203.551 15.1102 203.551 26.8294C203.551 38.5485 211.072 48.402 224.774 48.402C235.385 48.402 241.915 42.1634 243.548 35.3418ZM276.342 47.644H282.988L266.022 23.3894L282.522 6.01466H275.467L256.227 27.0043V6.01466H250.688V47.644H256.227V33.7676L262.407 27.2375L276.342 47.644ZM293.179 42.9797V6.01466H287.64V47.644H313.411V42.9797H293.179ZM324.78 42.9797V28.8117H344.195V24.1473H324.78V10.679H345.42V6.01466H319.241V47.644H345.595V42.9797H324.78Z"/>
</svg>
